<svg id="bc120fd5-a45c-4554-8693-2a07b00acda5" data-name="Layer 1" xmlns="http://www.w3.org/2000/svg" xmlns:xlink="http://www.w3.org/1999/xlink" viewBox="0 0 552.05 134.46"><defs><linearGradient id="bf239030-d6b0-4012-bb79-f21befed7a1f" x1="553.9" y1="382.32" x2="764.54" y2="171.68" gradientUnits="userSpaceOnUse"><stop offset="0" stop-color="#00b400"/><stop offset="1" stop-color="#a2d942"/></linearGradient></defs><path d="M459.84,234.9v-1.72h12v1.72h-5v14.28h-1.94V234.9Z" transform="translate(-306.62 -199.6)" style="fill:#64b44c"/><path d="M474.84,249.18v-16h1.94v7.13h8.53v-7.13h1.94v16h-1.94V242h-8.53v7.16Z" transform="translate(-306.62 -199.6)" style="fill:#64b44c"/><path d="M491.12,249.18v-16h9.66v1.72h-7.72v5.41h7.22V242h-7.22v5.44h7.84v1.72Z" transform="translate(-306.62 -199.6)" style="fill:#64b44c"/><path d="M462.67,291.09V260h10.61v5.91h.32a9.17,9.17,0,0,1,3.32-4.62,10,10,0,0,1,11.24,0,6.89,6.89,0,0,1,2.85,4.58h.33a7.88,7.88,0,0,1,3.36-4.58,10.48,10.48,0,0,1,6-1.74,9.66,9.66,0,0,1,7.26,2.88,10.56,10.56,0,0,1,2.78,7.65v21H499.59V273a4.63,4.63,0,0,0-1-3.2,3.51,3.51,0,0,0-2.77-1.17,3.38,3.38,0,0,0-2.72,1.17,4.72,4.72,0,0,0-1,3.2v18.14H481.38V273a4.63,4.63,0,0,0-1-3.2,3.5,3.5,0,0,0-2.77-1.17,3.61,3.61,0,0,0-2,.53,3.43,3.43,0,0,0-1.29,1.51,5.53,5.53,0,0,0-.45,2.33v18.14Z" transform="translate(-306.62 -199.6)" style="fill:#059848"/><path d="M516.27,291.09V260h11.18v31.09Zm5.59-34.33a5.53,5.53,0,0,1-3.89-1.5,4.81,4.81,0,0,1,0-7.2,5.81,5.81,0,0,1,7.79,0,4.83,4.83,0,0,1,0,7.2A5.54,5.54,0,0,1,521.86,256.76Z" transform="translate(-306.62 -199.6)" style="fill:#059848"/><path d="M533.11,291.09V260h10.61v5.91H544a9.17,9.17,0,0,1,3.32-4.62,10,10,0,0,1,11.24,0,6.89,6.89,0,0,1,2.85,4.58h.33a7.88,7.88,0,0,1,3.36-4.58,10.48,10.48,0,0,1,6-1.74,9.62,9.62,0,0,1,7.25,2.88,10.53,10.53,0,0,1,2.79,7.65v21H570V273a4.63,4.63,0,0,0-1-3.2,3.51,3.51,0,0,0-2.77-1.17,3.38,3.38,0,0,0-2.72,1.17,4.72,4.72,0,0,0-1,3.2v18.14H551.82V273a4.63,4.63,0,0,0-1-3.2,3.5,3.5,0,0,0-2.77-1.17,3.61,3.61,0,0,0-2,.53,3.43,3.43,0,0,0-1.29,1.51,5.53,5.53,0,0,0-.45,2.33v18.14Z" transform="translate(-306.62 -199.6)" style="fill:#059848"/><path d="M613,291.66a17.42,17.42,0,0,1-8.67-2,13.7,13.7,0,0,1-5.52-5.62,19.2,19.2,0,0,1,0-16.78,13.67,13.67,0,0,1,5.52-5.63,17.53,17.53,0,0,1,8.67-2,17.72,17.72,0,0,1,7.92,1.65,12.37,12.37,0,0,1,5.19,4.66A13.31,13.31,0,0,1,628,273H617.64a6.2,6.2,0,0,0-1.41-3.73,3.92,3.92,0,0,0-3-1.29,4.07,4.07,0,0,0-2.55.84,5.37,5.37,0,0,0-1.7,2.53,15.08,15.08,0,0,0,0,8.49,5.37,5.37,0,0,0,1.7,2.53,4.07,4.07,0,0,0,2.55.84,4.15,4.15,0,0,0,2.18-.58,4.28,4.28,0,0,0,1.55-1.7,6.85,6.85,0,0,0,.72-2.74H628a14,14,0,0,1-1.88,7.15A12.19,12.19,0,0,1,621,290,17.72,17.72,0,0,1,613,291.66Z" transform="translate(-306.62 -199.6)" style="fill:#059848"/><path d="M643.79,273.6v17.49H632.62V249.64h10.77v16.27h.32a9.19,9.19,0,0,1,3.5-4.65,10.25,10.25,0,0,1,5.89-1.67,10.72,10.72,0,0,1,5.74,1.5,10.22,10.22,0,0,1,3.79,4.13,12.92,12.92,0,0,1,1.32,6v19.84H652.78V273.6a5.24,5.24,0,0,0-1.14-3.62,4.19,4.19,0,0,0-3.31-1.32,4.6,4.6,0,0,0-2.38.6,4,4,0,0,0-1.58,1.7A6.12,6.12,0,0,0,643.79,273.6Z" transform="translate(-306.62 -199.6)" style="fill:#059848"/><path d="M678.12,291.58a13.08,13.08,0,0,1-5.25-1,7.8,7.8,0,0,1-3.57-3,9.19,9.19,0,0,1-1.3-5.1,10,10,0,0,1,.87-4.36,7.85,7.85,0,0,1,2.43-3,11.35,11.35,0,0,1,3.63-1.76,21.45,21.45,0,0,1,4.49-.79,39.26,39.26,0,0,0,4.2-.5,5.53,5.53,0,0,0,2.3-.83,1.68,1.68,0,0,0,.7-1.42v-.08a2.15,2.15,0,0,0-.93-1.87,4.09,4.09,0,0,0-2.39-.64,4.51,4.51,0,0,0-2.6.69,3,3,0,0,0-1.2,2.14H669.22a10.47,10.47,0,0,1,1.81-5.23,11.23,11.23,0,0,1,4.7-3.85,18.37,18.37,0,0,1,7.74-1.45,21.26,21.26,0,0,1,6,.78,14.33,14.33,0,0,1,4.51,2.17,9.57,9.57,0,0,1,2.84,3.24,8.37,8.37,0,0,1,1,4v21.29H687.35v-4.37h-.24a8.88,8.88,0,0,1-2.26,2.81,8.32,8.32,0,0,1-3,1.56A13.61,13.61,0,0,1,678.12,291.58Zm3.65-7.05a5.53,5.53,0,0,0,2.39-.52,4.7,4.7,0,0,0,1.84-1.52,4.06,4.06,0,0,0,.7-2.41v-2.59c-.29.12-.61.23-.94.34s-.68.21-1,.31-.76.18-1.17.26l-1.29.22a6.56,6.56,0,0,0-2.11.66,3.08,3.08,0,0,0-1.22,1.11,2.84,2.84,0,0,0-.39,1.47,2.31,2.31,0,0,0,.91,2A3.73,3.73,0,0,0,681.77,284.53Z" transform="translate(-306.62 -199.6)" style="fill:#059848"/><path d="M703.14,302.75V260h11.09v5.42h.24a9.46,9.46,0,0,1,1.79-2.9,8.78,8.78,0,0,1,2.91-2.13,9.66,9.66,0,0,1,4.05-.8,11.42,11.42,0,0,1,5.86,1.64,12,12,0,0,1,4.53,5.17,20.5,20.5,0,0,1,1.75,9.14,20.84,20.84,0,0,1-1.67,8.93,12,12,0,0,1-4.45,5.28,11.2,11.2,0,0,1-6.1,1.75,10,10,0,0,1-3.9-.72,8.66,8.66,0,0,1-2.91-2,8.93,8.93,0,0,1-1.86-2.82h-.16v16.76Zm10.93-27.21a11.46,11.46,0,0,0,.6,3.92,5.68,5.68,0,0,0,1.7,2.55,4.33,4.33,0,0,0,5.26,0,5.45,5.45,0,0,0,1.66-2.53,13.77,13.77,0,0,0,0-7.91,5.45,5.45,0,0,0-1.66-2.53,4,4,0,0,0-2.62-.88,4.06,4.06,0,0,0-2.64.88,5.5,5.5,0,0,0-1.7,2.53A11.6,11.6,0,0,0,714.07,275.54Z" transform="translate(-306.62 -199.6)" style="fill:#059848"/><path d="M740.06,291.09V260h10.61v5.91H751a9.11,9.11,0,0,1,3.32-4.62,10,10,0,0,1,11.23,0,6.94,6.94,0,0,1,2.86,4.58h.32a8,8,0,0,1,3.36-4.58,10.5,10.5,0,0,1,6-1.74,9.64,9.64,0,0,1,7.26,2.88,10.52,10.52,0,0,1,2.78,7.65v21H777V273a4.63,4.63,0,0,0-1-3.2,3.53,3.53,0,0,0-2.78-1.17,3.41,3.41,0,0,0-2.72,1.17,4.72,4.72,0,0,0-1,3.2v18.14H758.76V273a4.63,4.63,0,0,0-1-3.2,3.51,3.51,0,0,0-2.77-1.17,3.67,3.67,0,0,0-2,.53,3.41,3.41,0,0,0-1.28,1.51,5.38,5.38,0,0,0-.46,2.33v18.14Z" transform="translate(-306.62 -199.6)" style="fill:#059848"/><path d="M802.32,291.58a13.08,13.08,0,0,1-5.25-1,7.8,7.8,0,0,1-3.57-3,9.19,9.19,0,0,1-1.3-5.1,10,10,0,0,1,.87-4.36,7.85,7.85,0,0,1,2.43-3,11.35,11.35,0,0,1,3.63-1.76,21.45,21.45,0,0,1,4.49-.79,39.26,39.26,0,0,0,4.2-.5,5.53,5.53,0,0,0,2.3-.83,1.68,1.68,0,0,0,.7-1.42v-.08a2.15,2.15,0,0,0-.93-1.87,4.09,4.09,0,0,0-2.39-.64,4.51,4.51,0,0,0-2.6.69,3,3,0,0,0-1.2,2.14H793.42a10.47,10.47,0,0,1,1.81-5.23,11.23,11.23,0,0,1,4.7-3.85,18.37,18.37,0,0,1,7.74-1.45,21.26,21.26,0,0,1,6,.78,14.33,14.33,0,0,1,4.51,2.17,9.71,9.71,0,0,1,2.85,3.24,8.48,8.48,0,0,1,1,4v21.29H811.55v-4.37h-.24a8.88,8.88,0,0,1-2.26,2.81,8.32,8.32,0,0,1-3,1.56A13.61,13.61,0,0,1,802.32,291.58Zm3.65-7.05a5.53,5.53,0,0,0,2.39-.52,4.7,4.7,0,0,0,1.84-1.52,4.06,4.06,0,0,0,.7-2.41v-2.59c-.29.12-.61.23-.94.34s-.68.21-1.05.31-.76.18-1.17.26-.84.15-1.29.22a6.56,6.56,0,0,0-2.11.66,3.08,3.08,0,0,0-1.22,1.11,2.84,2.84,0,0,0-.39,1.47,2.31,2.31,0,0,0,.91,2A3.75,3.75,0,0,0,806,284.53Z" transform="translate(-306.62 -199.6)" style="fill:#059848"/><path d="M838.51,273.6v17.49H827.34V260H838v5.91h.32a8.9,8.9,0,0,1,3.57-4.64,11.57,11.57,0,0,1,11.72-.17,10.31,10.31,0,0,1,3.79,4.14,12.75,12.75,0,0,1,1.32,6v19.84H847.5V273.6a5.15,5.15,0,0,0-1.16-3.62,4.2,4.2,0,0,0-3.29-1.32,4.65,4.65,0,0,0-2.4.6,4,4,0,0,0-1.57,1.7A6.27,6.27,0,0,0,838.51,273.6Z" transform="translate(-306.62 -199.6)" style="fill:#059848"/><path d="M462.67,291.09V260h10.61v5.91h.32a9.17,9.17,0,0,1,3.32-4.62,10,10,0,0,1,11.24,0,6.89,6.89,0,0,1,2.85,4.58h.33a7.88,7.88,0,0,1,3.36-4.58,10.48,10.48,0,0,1,6-1.74,9.66,9.66,0,0,1,7.26,2.88,10.56,10.56,0,0,1,2.78,7.65v21H499.59V273a4.63,4.63,0,0,0-1-3.2,3.51,3.51,0,0,0-2.77-1.17,3.38,3.38,0,0,0-2.72,1.17,4.72,4.72,0,0,0-1,3.2v18.14H481.38V273a4.63,4.63,0,0,0-1-3.2,3.5,3.5,0,0,0-2.77-1.17,3.61,3.61,0,0,0-2,.53,3.43,3.43,0,0,0-1.29,1.51,5.53,5.53,0,0,0-.45,2.33v18.14Z" transform="translate(-306.62 -199.6)" style="fill:url(#bf239030-d6b0-4012-bb79-f21befed7a1f)"/><path d="M516.27,291.09V260h11.18v31.09Zm5.59-34.33a5.53,5.53,0,0,1-3.89-1.5,4.81,4.81,0,0,1,0-7.2,5.81,5.81,0,0,1,7.79,0,4.83,4.83,0,0,1,0,7.2A5.54,5.54,0,0,1,521.86,256.76Z" transform="translate(-306.62 -199.6)" style="fill:url(#bf239030-d6b0-4012-bb79-f21befed7a1f)"/><path d="M533.11,291.09V260h10.61v5.91H544a9.17,9.17,0,0,1,3.32-4.62,10,10,0,0,1,11.24,0,6.89,6.89,0,0,1,2.85,4.58h.33a7.88,7.88,0,0,1,3.36-4.58,10.48,10.48,0,0,1,6-1.74,9.62,9.62,0,0,1,7.25,2.88,10.53,10.53,0,0,1,2.79,7.65v21H570V273a4.63,4.63,0,0,0-1-3.2,3.51,3.51,0,0,0-2.77-1.17,3.38,3.38,0,0,0-2.72,1.17,4.72,4.72,0,0,0-1,3.2v18.14H551.82V273a4.63,4.63,0,0,0-1-3.2,3.5,3.5,0,0,0-2.77-1.17,3.61,3.61,0,0,0-2,.53,3.43,3.43,0,0,0-1.29,1.51,5.53,5.53,0,0,0-.45,2.33v18.14Z" transform="translate(-306.62 -199.6)" style="fill:url(#bf239030-d6b0-4012-bb79-f21befed7a1f)"/><path d="M613,291.66a17.42,17.42,0,0,1-8.67-2,13.7,13.7,0,0,1-5.52-5.62,19.2,19.2,0,0,1,0-16.78,13.67,13.67,0,0,1,5.52-5.63,17.53,17.53,0,0,1,8.67-2,17.72,17.72,0,0,1,7.92,1.65,12.37,12.37,0,0,1,5.19,4.66A13.31,13.31,0,0,1,628,273H617.64a6.2,6.2,0,0,0-1.41-3.73,3.92,3.92,0,0,0-3-1.29,4.07,4.07,0,0,0-2.55.84,5.37,5.37,0,0,0-1.7,2.53,15.08,15.08,0,0,0,0,8.49,5.37,5.37,0,0,0,1.7,2.53,4.07,4.07,0,0,0,2.55.84,4.15,4.15,0,0,0,2.18-.58,4.28,4.28,0,0,0,1.55-1.7,6.85,6.85,0,0,0,.72-2.74H628a14,14,0,0,1-1.88,7.15A12.19,12.19,0,0,1,621,290,17.72,17.72,0,0,1,613,291.66Z" transform="translate(-306.62 -199.6)" style="fill:url(#bf239030-d6b0-4012-bb79-f21befed7a1f)"/><path d="M643.79,273.6v17.49H632.62V249.64h10.77v16.27h.32a9.19,9.19,0,0,1,3.5-4.65,10.25,10.25,0,0,1,5.89-1.67,10.72,10.72,0,0,1,5.74,1.5,10.22,10.22,0,0,1,3.79,4.13,12.92,12.92,0,0,1,1.32,6v19.84H652.78V273.6a5.24,5.24,0,0,0-1.14-3.62,4.19,4.19,0,0,0-3.31-1.32,4.6,4.6,0,0,0-2.38.6,4,4,0,0,0-1.58,1.7A6.12,6.12,0,0,0,643.79,273.6Z" transform="translate(-306.62 -199.6)" style="fill:url(#bf239030-d6b0-4012-bb79-f21befed7a1f)"/><path d="M678.12,291.58a13.08,13.08,0,0,1-5.25-1,7.8,7.8,0,0,1-3.57-3,9.19,9.19,0,0,1-1.3-5.1,10,10,0,0,1,.87-4.36,7.85,7.85,0,0,1,2.43-3,11.35,11.35,0,0,1,3.63-1.76,21.45,21.45,0,0,1,4.49-.79,39.26,39.26,0,0,0,4.2-.5,5.53,5.53,0,0,0,2.3-.83,1.68,1.68,0,0,0,.7-1.42v-.08a2.15,2.15,0,0,0-.93-1.87,4.09,4.09,0,0,0-2.39-.64,4.51,4.51,0,0,0-2.6.69,3,3,0,0,0-1.2,2.14H669.22a10.47,10.47,0,0,1,1.81-5.23,11.23,11.23,0,0,1,4.7-3.85,18.37,18.37,0,0,1,7.74-1.45,21.26,21.26,0,0,1,6,.78,14.33,14.33,0,0,1,4.51,2.17,9.57,9.57,0,0,1,2.84,3.24,8.37,8.37,0,0,1,1,4v21.29H687.35v-4.37h-.24a8.88,8.88,0,0,1-2.26,2.81,8.32,8.32,0,0,1-3,1.56A13.61,13.61,0,0,1,678.12,291.58Zm3.65-7.05a5.53,5.53,0,0,0,2.39-.52,4.7,4.7,0,0,0,1.84-1.52,4.06,4.06,0,0,0,.7-2.41v-2.59c-.29.12-.61.23-.94.34s-.68.21-1,.31-.76.18-1.17.26l-1.29.22a6.56,6.56,0,0,0-2.11.66,3.08,3.08,0,0,0-1.22,1.11,2.84,2.84,0,0,0-.39,1.47,2.31,2.31,0,0,0,.91,2A3.73,3.73,0,0,0,681.77,284.53Z" transform="translate(-306.62 -199.6)" style="fill:url(#bf239030-d6b0-4012-bb79-f21befed7a1f)"/><path d="M703.14,302.75V260h11.09v5.42h.24a9.46,9.46,0,0,1,1.79-2.9,8.78,8.78,0,0,1,2.91-2.13,9.66,9.66,0,0,1,4.05-.8,11.42,11.42,0,0,1,5.86,1.64,12,12,0,0,1,4.53,5.17,20.5,20.5,0,0,1,1.75,9.14,20.84,20.84,0,0,1-1.67,8.93,12,12,0,0,1-4.45,5.28,11.2,11.2,0,0,1-6.1,1.75,10,10,0,0,1-3.9-.72,8.66,8.66,0,0,1-2.91-2,8.93,8.93,0,0,1-1.86-2.82h-.16v16.76Zm10.93-27.21a11.46,11.46,0,0,0,.6,3.92,5.68,5.68,0,0,0,1.7,2.55,4.33,4.33,0,0,0,5.26,0,5.45,5.45,0,0,0,1.66-2.53,13.77,13.77,0,0,0,0-7.91,5.45,5.45,0,0,0-1.66-2.53,4,4,0,0,0-2.62-.88,4.06,4.06,0,0,0-2.64.88,5.5,5.5,0,0,0-1.7,2.53A11.6,11.6,0,0,0,714.07,275.54Z" transform="translate(-306.62 -199.6)" style="fill:url(#bf239030-d6b0-4012-bb79-f21befed7a1f)"/><path d="M740.06,291.09V260h10.61v5.91H751a9.11,9.11,0,0,1,3.32-4.62,10,10,0,0,1,11.23,0,6.94,6.94,0,0,1,2.86,4.58h.32a8,8,0,0,1,3.36-4.58,10.5,10.5,0,0,1,6-1.74,9.64,9.64,0,0,1,7.26,2.88,10.52,10.52,0,0,1,2.78,7.65v21H777V273a4.63,4.63,0,0,0-1-3.2,3.53,3.53,0,0,0-2.78-1.17,3.41,3.41,0,0,0-2.72,1.17,4.72,4.72,0,0,0-1,3.2v18.14H758.76V273a4.63,4.63,0,0,0-1-3.2,3.51,3.51,0,0,0-2.77-1.17,3.67,3.67,0,0,0-2,.53,3.41,3.41,0,0,0-1.28,1.51,5.38,5.38,0,0,0-.46,2.33v18.14Z" transform="translate(-306.62 -199.6)" style="fill:url(#bf239030-d6b0-4012-bb79-f21befed7a1f)"/><path d="M802.32,291.58a13.08,13.08,0,0,1-5.25-1,7.8,7.8,0,0,1-3.57-3,9.19,9.19,0,0,1-1.3-5.1,10,10,0,0,1,.87-4.36,7.85,7.85,0,0,1,2.43-3,11.35,11.35,0,0,1,3.63-1.76,21.45,21.45,0,0,1,4.49-.79,39.26,39.26,0,0,0,4.2-.5,5.53,5.53,0,0,0,2.3-.83,1.68,1.68,0,0,0,.7-1.42v-.08a2.15,2.15,0,0,0-.93-1.87,4.09,4.09,0,0,0-2.39-.64,4.51,4.51,0,0,0-2.6.69,3,3,0,0,0-1.2,2.14H793.42a10.47,10.47,0,0,1,1.81-5.23,11.23,11.23,0,0,1,4.7-3.85,18.37,18.37,0,0,1,7.74-1.45,21.26,21.26,0,0,1,6,.78,14.33,14.33,0,0,1,4.51,2.17,9.71,9.71,0,0,1,2.85,3.24,8.48,8.48,0,0,1,1,4v21.29H811.55v-4.37h-.24a8.88,8.88,0,0,1-2.26,2.81,8.32,8.32,0,0,1-3,1.56A13.61,13.61,0,0,1,802.32,291.58Zm3.65-7.05a5.53,5.53,0,0,0,2.39-.52,4.7,4.7,0,0,0,1.84-1.52,4.06,4.06,0,0,0,.7-2.41v-2.59c-.29.12-.61.23-.94.34s-.68.21-1.05.31-.76.18-1.17.26-.84.15-1.29.22a6.56,6.56,0,0,0-2.11.66,3.08,3.08,0,0,0-1.22,1.11,2.84,2.84,0,0,0-.39,1.47,2.31,2.31,0,0,0,.91,2A3.75,3.75,0,0,0,806,284.53Z" transform="translate(-306.62 -199.6)" style="fill:url(#bf239030-d6b0-4012-bb79-f21befed7a1f)"/><path d="M838.51,273.6v17.49H827.34V260H838v5.91h.32a8.9,8.9,0,0,1,3.57-4.64,11.57,11.57,0,0,1,11.72-.17,10.31,10.31,0,0,1,3.79,4.14,12.75,12.75,0,0,1,1.32,6v19.84H847.5V273.6a5.15,5.15,0,0,0-1.16-3.62,4.2,4.2,0,0,0-3.29-1.32,4.65,4.65,0,0,0-2.4.6,4,4,0,0,0-1.57,1.7A6.27,6.27,0,0,0,838.51,273.6Z" transform="translate(-306.62 -199.6)" style="fill:url(#bf239030-d6b0-4012-bb79-f21befed7a1f)"/><path d="M718.18,322.12v-16h9.59v1.72h-7.65v5.41h6.93V315h-6.93v7.15Z" transform="translate(-306.62 -199.6)" style="fill:#64b44c"/><path d="M744.58,314.12a9.76,9.76,0,0,1-.91,4.38,6.89,6.89,0,0,1-2.51,2.84,7.12,7.12,0,0,1-7.28,0,6.89,6.89,0,0,1-2.51-2.84,11,11,0,0,1,0-8.75,6.92,6.92,0,0,1,2.51-2.85,7.12,7.12,0,0,1,7.28,0,6.92,6.92,0,0,1,2.51,2.85A9.74,9.74,0,0,1,744.58,314.12Zm-1.87,0a8.08,8.08,0,0,0-.69-3.51,5.11,5.11,0,0,0-1.87-2.16,5.1,5.1,0,0,0-5.26,0,5.09,5.09,0,0,0-1.86,2.16,9.15,9.15,0,0,0,0,7,5,5,0,0,0,1.86,2.16,5,5,0,0,0,5.26,0,5,5,0,0,0,1.87-2.16A8,8,0,0,0,742.71,314.12Z" transform="translate(-306.62 -199.6)" style="fill:#64b44c"/><path d="M758.33,306.12h1.94v10.6a5.58,5.58,0,0,1-.77,2.92,5.39,5.39,0,0,1-2.17,2,7.73,7.73,0,0,1-6.56,0,5.52,5.52,0,0,1-2.17-2,5.58,5.58,0,0,1-.77-2.92v-10.6h1.94v10.44a4.07,4.07,0,0,0,.52,2.08,3.56,3.56,0,0,0,1.47,1.43,5.32,5.32,0,0,0,4.59,0,3.56,3.56,0,0,0,1.47-1.43,4.16,4.16,0,0,0,.51-2.08Z" transform="translate(-306.62 -199.6)" style="fill:#64b44c"/><path d="M776.83,306.12v16H775l-8.72-12.56h-.16v12.56h-1.93v-16H766l8.75,12.6h.16v-12.6Z" transform="translate(-306.62 -199.6)" style="fill:#64b44c"/><path d="M785.65,322.12h-4.94v-16h5.15a7.83,7.83,0,0,1,4,1,6.36,6.36,0,0,1,2.54,2.74,9.54,9.54,0,0,1,.88,4.27,9.64,9.64,0,0,1-.89,4.3,6.37,6.37,0,0,1-2.59,2.77A8.34,8.34,0,0,1,785.65,322.12Zm-3-1.72h2.87a6.43,6.43,0,0,0,3.29-.76,4.68,4.68,0,0,0,1.94-2.18,9,9,0,0,0,0-6.71,4.67,4.67,0,0,0-1.89-2.15,5.93,5.93,0,0,0-3.13-.76h-3.09Z" transform="translate(-306.62 -199.6)" style="fill:#64b44c"/><path d="M796.43,322.12h-2l5.87-16h2l5.88,16h-2l-4.78-13.47h-.12Zm.75-6.25h8.18v1.72h-8.18Z" transform="translate(-306.62 -199.6)" style="fill:#64b44c"/><path d="M807.9,307.84v-1.72h12v1.72h-5v14.28h-1.93V307.84Z" transform="translate(-306.62 -199.6)" style="fill:#64b44c"/><path d="M824.83,306.12v16H822.9v-16Z" transform="translate(-306.62 -199.6)" style="fill:#64b44c"/><path d="M842.21,314.12a9.76,9.76,0,0,1-.92,4.38,6.87,6.87,0,0,1-2.5,2.84,7.14,7.14,0,0,1-7.29,0,6.87,6.87,0,0,1-2.5-2.84,10.86,10.86,0,0,1,0-8.75,6.9,6.9,0,0,1,2.5-2.85,7.14,7.14,0,0,1,7.29,0,6.9,6.9,0,0,1,2.5,2.85A9.74,9.74,0,0,1,842.21,314.12Zm-1.88,0a8.08,8.08,0,0,0-.69-3.51,5,5,0,0,0-1.87-2.16,5.08,5.08,0,0,0-5.25,0,5,5,0,0,0-1.87,2.16,9.27,9.27,0,0,0,0,7,5,5,0,0,0,1.87,2.16,5,5,0,0,0,5.25,0,5,5,0,0,0,1.87-2.16A8,8,0,0,0,840.33,314.12Z" transform="translate(-306.62 -199.6)" style="fill:#64b44c"/><path d="M858.15,306.12v16h-1.88l-8.72-12.56h-.15v12.56h-1.94v-16h1.87l8.75,12.6h.16v-12.6Z" transform="translate(-306.62 -199.6)" style="fill:#64b44c"/><path d="M384.84,334.05a2.18,2.18,0,0,1-2.18-2.17c0-3.34,0-82.1,42.84-115.22a2.18,2.18,0,0,1,2.64,3.46C387,252,387,331.06,387,331.85A2.18,2.18,0,0,1,384.84,334.05Z" transform="translate(-306.62 -199.6)" style="fill:#60a146"/><path d="M396.73,270.49s5.49-28.47,35.86-17.21C432.59,253.28,418.34,280.51,396.73,270.49Z" transform="translate(-306.62 -199.6)" style="fill:#64b44c"/><path d="M392.71,270.47s13.13-25.88-17.87-35.31c0,0-5.42,30.2,17.87,35.31Z" transform="translate(-306.62 -199.6)" style="fill:#64b44c"/><path d="M412.21,236.81s10.9-22.94,34.19-6.74C446.35,230.07,428.3,250,412.21,236.81Z" transform="translate(-306.62 -199.6)" style="fill:#64b44c"/><path d="M408.75,235.92s16.81-19.12-7.4-33.88C401.35,202,390.13,226.47,408.75,235.92Z" transform="translate(-306.62 -199.6)" style="fill:#64b44c"/><path d="M424.81,219.49s7.22-29.86,38.82-16.4C463.63,203.09,447.26,231.16,424.81,219.49Z" transform="translate(-306.62 -199.6)" style="fill:#64b44c"/><path d="M385.54,334a1.59,1.59,0,0,0,1.28-1.85.29.29,0,0,0,0-.09c-.52-2.45-13.2-60.26-50-77.69a1.64,1.64,0,1,0-1.4,3c35.36,16.73,48.11,74.79,48.11,75.42a1.59,1.59,0,0,0,1.84,1.29l.1,0Z" transform="translate(-306.62 -199.6)" style="fill:#60a146"/><path d="M377.16,313.53s-4.36-23.33-29.29-14.33C347.91,299.26,359.45,321.64,377.16,313.53Z" transform="translate(-306.62 -199.6)" style="fill:#64b44c"/><path d="M380.49,313.55s-10.62-21.25,14.8-28.85c0,0,4.3,24.75-14.8,28.85Z" transform="translate(-306.62 -199.6)" style="fill:#64b44c"/><path d="M366.6,289.25s-8.55-20-29.1-6.86C337.5,282.39,352.34,300.09,366.6,289.25Z" transform="translate(-306.62 -199.6)" style="fill:#64b44c"/><path d="M369.55,288.6s-13.81-16.9,7.44-28.8c0,0,8.82,21.35-7.44,28.8Z" transform="translate(-306.62 -199.6)" style="fill:#64b44c"/><path d="M349.84,267s-11.67-15.11-26.17.54C323.67,267.56,340.12,279.33,349.84,267Z" transform="translate(-306.62 -199.6)" style="fill:#64b44c"/><path d="M352.2,265.8s-15.4-11.31,0-26.06c0,0,12.22,16.14,0,26.06Z" transform="translate(-306.62 -199.6)" style="fill:#64b44c"/><path d="M337.77,256.34s-10.09-20.71-31.15-5.86C306.62,250.48,323.21,268.5,337.77,256.34Z" transform="translate(-306.62 -199.6)" style="fill:#64b44c"/><path d="M382.77,304.58a44.43,44.43,0,0,1,7.47-14.11,44.74,44.74,0,0,0-6,8.79,10.11,10.11,0,0,0-.54-4.78,9.87,9.87,0,0,1,.1,5.62,44.75,44.75,0,0,0-4.69,17.1h1.6a43.24,43.24,0,0,1,1.72-11.41h.12a14,14,0,0,1,8.3-6.51,14.28,14.28,0,0,0-8.06,5.3Z" transform="translate(-306.62 -199.6)" style="fill:#60a146"/><path d="M372.54,308.4h.1A14.12,14.12,0,0,0,367,302a14,14,0,0,1,5,6,47.47,47.47,0,0,0-5.53-3.19l.09-.09L361,299.79l4.78,4.63a46.11,46.11,0,0,0-10.29-3.5,45.34,45.34,0,0,1,11.9,5.13,53.36,53.36,0,0,1-9.94-.58,52.53,52.53,0,0,0,10.83,1.12,43.68,43.68,0,0,1,4.56,3.34l-11.38.5,12.1.11a42.88,42.88,0,0,1,5.84,6.13l1.21-.95a44.59,44.59,0,0,0-8.08-7.32Z" transform="translate(-306.62 -199.6)" style="fill:#60a146"/><path d="M369.61,282.44a42.79,42.79,0,0,1,.83-7.06,9.68,9.68,0,0,1,4-4.32,9.94,9.94,0,0,0-3.71,3.19,41.5,41.5,0,0,1,2.92-8.32,38.36,38.36,0,0,0-2.22,4.78,7,7,0,0,0-.62-3.63,6.93,6.93,0,0,1,.18,5,40.82,40.82,0,0,0-1.82,7.3,34.59,34.59,0,0,0-2.2-4.94,34,34,0,0,1,2.11,5.59,40.5,40.5,0,0,0,0,12.14l1.38-.27a39.67,39.67,0,0,1-.81-8.49,10.76,10.76,0,0,1,4.78-5.91,10.86,10.86,0,0,0-4.8,4.91Z" transform="translate(-306.62 -199.6)" style="fill:#60a146"/><path d="M370,290.48a41.34,41.34,0,0,0-8.69-4.91,16.28,16.28,0,0,0-6-4.23,16,16,0,0,1,5.18,3.93,42.68,42.68,0,0,0-7.17-2.1l-5.5-3.36,4.7,3.18a41.64,41.64,0,0,0-8-.71,41.64,41.64,0,0,1,12.25,2.37l-6.79.22,7.82.2a40.18,40.18,0,0,1,11.3,6.51Z" transform="translate(-306.62 -199.6)" style="fill:#60a146"/><path d="M353.68,268.4a34.68,34.68,0,0,1-2.53-7,7.1,7.1,0,0,1,2.29-4.12,7.24,7.24,0,0,0-2.44,3.58,35.47,35.47,0,0,1-.92-7.18,8,8,0,0,1,3.51-6.26,8.15,8.15,0,0,0-3.51,4.46v-.79a35.38,35.38,0,0,1,.62-5.33,39.52,39.52,0,0,0-.83,4.7l-1-3.19.94,3.59a35.65,35.65,0,0,0-.13,5.37,7.55,7.55,0,0,0-1.93-2.59,7.39,7.39,0,0,1,1.95,3.19A35.69,35.69,0,0,0,352.57,269Z" transform="translate(-306.62 -199.6)" style="fill:#60a146"/><path d="M353,267.3a35.88,35.88,0,0,0-7.17-2.08h-.13a37.25,37.25,0,0,0-4.48-.53,27,27,0,0,1-7.67-1.82,25.81,25.81,0,0,0,5.21,1.77,36.74,36.74,0,0,0-9.16,1.28,32.5,32.5,0,0,1,4.17-.62,7.53,7.53,0,0,0-2.66,1.46,8.12,8.12,0,0,1,4.44-1.59,36.2,36.2,0,0,1,7.57.43,15.71,15.71,0,0,0-6.88,3.47,15.46,15.46,0,0,1,8.27-3.18,34.8,34.8,0,0,1,8,2.59Z" transform="translate(-306.62 -199.6)" style="fill:#60a146"/><path d="M332.19,252.77a35.26,35.26,0,0,0-10-5.19,31.72,31.72,0,0,1,8.47,4.67,46.77,46.77,0,0,0-6.61-1.59v-.1h-.27a44.57,44.57,0,0,0-9.65-.52,43.33,43.33,0,0,1,8.5.81,47.68,47.68,0,0,1-8.15,1.19,45.2,45.2,0,0,0,9.28-1,39.56,39.56,0,0,1,4,1.05,12,12,0,0,1-7.06,1.59,12.22,12.22,0,0,0,7.57-1.41,45.68,45.68,0,0,1,5,2,35.18,35.18,0,0,1-10.76,2.37,34.77,34.77,0,0,0,11.52-2,41,41,0,0,1,6.48,4l.89-1.21A43.07,43.07,0,0,0,332.19,252.77Z" transform="translate(-306.62 -199.6)" style="fill:#60a146"/><path d="M422.57,259.19a59.9,59.9,0,0,0-10.71.45,56,56,0,0,1,11.5-4.46,56.52,56.52,0,0,0-15.93,6,54.66,54.66,0,0,0,5.1-5.11,55.7,55.7,0,0,1-9.24,7.67,54.45,54.45,0,0,0-10.59,9.34l1.46,1.18a52.94,52.94,0,0,1,6.82-7.14l15.29-.16-14.33-.6a55.79,55.79,0,0,1,8.39-5.82,59.21,59.21,0,0,1,12.24-1.34Z" transform="translate(-306.62 -199.6)" style="fill:#60a146"/><path d="M392,262a33.34,33.34,0,0,0-.51-12.43,30.26,30.26,0,0,1,.17,11.42,57.69,57.69,0,0,0-3.57-8.33h.1l-2.53-9.78,1.73,8.4a55.25,55.25,0,0,0-6.37-9.1,54.4,54.4,0,0,1,8.09,14.46,40.15,40.15,0,0,1-8.11-8.15,40.33,40.33,0,0,0,8.54,9.33,52.63,52.63,0,0,1,3,17.18h1.9A54.78,54.78,0,0,0,392,262Z" transform="translate(-306.62 -199.6)" style="fill:#60a146"/><path d="M438.13,229.67a48.25,48.25,0,0,0-7,.18,11.75,11.75,0,0,0,4.29-2.34,11.53,11.53,0,0,1-5.52,2.34V230c-1.37.18-2.74.4-4.09.67-1.59.35-3.19.78-4.78,1.29a20.89,20.89,0,0,0,4.16-4.78,20.49,20.49,0,0,1-5.21,5.13,49.14,49.14,0,0,0-11.87,5.86l1,1.33a46.2,46.2,0,0,1,6.79-4.29,59.33,59.33,0,0,1,11.15,0,59.75,59.75,0,0,0-9.91-.68,49.68,49.68,0,0,1,9.75-3.48,15.09,15.09,0,0,1,8,1.34,15.1,15.1,0,0,0-5.9-1.75A48.86,48.86,0,0,1,438.13,229.67Z" transform="translate(-306.62 -199.6)" style="fill:#60a146"/><path d="M411.08,217.23a31,31,0,0,1-1.18,10.05,48.63,48.63,0,0,0-1.59-9,25.6,25.6,0,0,0,.16-8.86,22,22,0,0,1-.35,8,48.61,48.61,0,0,0-3.19-8.11,48,48,0,0,1,3.78,14.8,43.22,43.22,0,0,1-3.37-8,44.81,44.81,0,0,0,3.49,9.24,46.15,46.15,0,0,1-1.25,14.34l1.59.38A47.93,47.93,0,0,0,410,229a31.61,31.61,0,0,0,1.1-11.73Z" transform="translate(-306.62 -199.6)" style="fill:#60a146"/><path d="M450.44,208.3c-2.61-.18-5.24-.21-7.85-.13a57.48,57.48,0,0,1,11.15-3.57,59,59,0,0,0-12.85,3.6c-1.33.54-2.65,1.13-3.92,1.77a16.92,16.92,0,0,0,3.79-5.45,16.44,16.44,0,0,1-5.56,6.37A59,59,0,0,0,420.42,222l1.59,1.33a56.14,56.14,0,0,1,8.68-8.13,49.88,49.88,0,0,1,10.4-1.19,48.78,48.78,0,0,0-9.43.49,58.41,58.41,0,0,1,10-5.85,80.12,80.12,0,0,1,8.76-.39Z" transform="translate(-306.62 -199.6)" style="fill:#60a146"/></svg>